<svg aria-hidden="true" style="position: absolute; width: 0; height: 0; overflow: hidden;" version="1.1" xmlns="http://www.w3.org/2000/svg" xmlns:xlink="http://www.w3.org/1999/xlink">
<defs>


<symbol id="icon-star" viewBox="0 0 32 32">
<title>star</title>
<path d="M16 23l9 6-4-10 9-6h-10l-4-10-4 10h-10l9 6-4 10 9-6zM16 21.753l-6.8 4.547 3.2-7.7-7.2-4.6h7.5l3.3-8.5 3.3 8.5h7.5l-7.2 4.6 3.2 7.7-6.8-4.547z"></path>
</symbol>
<symbol id="icon-star1" viewBox="0 0 32 32">


<title>star1</title>
<path d="M16 23l-9 6 4-10-9-6h10l4-10 4 10h10l-9 6 4 10z"></path>
</symbol>


<symbol id="icon-instagram" viewBox="0 0 32 32">
<title>instagram</title>
<path fill="#bfbfbf" style="fill: var(--color1, #bfbfbf)" d="M16 0c-4.347 0-4.889 0.020-6.596 0.096-1.704 0.080-2.864 0.348-3.884 0.744-1.052 0.408-1.945 0.956-2.835 1.845s-1.439 1.781-1.845 2.835c-0.396 1.020-0.665 2.18-0.744 3.884-0.080 1.707-0.096 2.249-0.096 6.596s0.020 4.889 0.096 6.596c0.080 1.703 0.348 2.864 0.744 3.884 0.408 1.051 0.956 1.945 1.845 2.835 0.889 0.888 1.781 1.439 2.835 1.845 1.021 0.395 2.181 0.665 3.884 0.744 1.707 0.080 2.249 0.096 6.596 0.096s4.889-0.020 6.596-0.096c1.703-0.080 2.864-0.349 3.884-0.744 1.051-0.408 1.945-0.957 2.835-1.845 0.888-0.889 1.439-1.78 1.845-2.835 0.395-1.020 0.665-2.181 0.744-3.884 0.080-1.707 0.096-2.249 0.096-6.596s-0.020-4.889-0.096-6.596c-0.080-1.703-0.349-2.865-0.744-3.884-0.408-1.052-0.957-1.945-1.845-2.835-0.889-0.889-1.78-1.439-2.835-1.845-1.020-0.396-2.181-0.665-3.884-0.744-1.707-0.080-2.249-0.096-6.596-0.096zM16 2.88c4.271 0 4.78 0.021 6.467 0.095 1.56 0.073 2.407 0.332 2.969 0.553 0.749 0.289 1.28 0.636 1.843 1.195 0.559 0.56 0.905 1.092 1.195 1.841 0.219 0.563 0.48 1.409 0.551 2.969 0.076 1.688 0.093 2.195 0.093 6.467s-0.020 4.78-0.099 6.467c-0.081 1.56-0.341 2.407-0.561 2.969-0.299 0.749-0.639 1.28-1.199 1.843-0.559 0.559-1.099 0.905-1.84 1.195-0.56 0.219-1.42 0.48-2.98 0.551-1.699 0.076-2.199 0.093-6.479 0.093-4.281 0-4.781-0.020-6.479-0.099-1.561-0.081-2.421-0.341-2.981-0.561-0.759-0.299-1.28-0.639-1.839-1.199-0.561-0.559-0.92-1.099-1.2-1.84-0.22-0.56-0.479-1.42-0.56-2.98-0.060-1.68-0.081-2.199-0.081-6.459 0-4.261 0.021-4.781 0.081-6.481 0.081-1.56 0.34-2.419 0.56-2.979 0.28-0.76 0.639-1.28 1.2-1.841 0.559-0.559 1.080-0.919 1.839-1.197 0.56-0.221 1.401-0.481 2.961-0.561 1.7-0.060 2.2-0.080 6.479-0.080l0.060 0.040zM16 7.784c-4.54 0-8.216 3.68-8.216 8.216 0 4.54 3.68 8.216 8.216 8.216 4.54 0 8.216-3.68 8.216-8.216 0-4.54-3.68-8.216-8.216-8.216zM16 21.333c-2.947 0-5.333-2.387-5.333-5.333s2.387-5.333 5.333-5.333 5.333 2.387 5.333 5.333-2.387 5.333-5.333 5.333zM26.461 7.46c0 1.060-0.861 1.92-1.92 1.92-1.060 0-1.92-0.861-1.92-1.92s0.861-1.919 1.92-1.919c1.057-0.001 1.92 0.86 1.92 1.919z"></path>
</symbol>


<symbol id="icon-facebook" viewBox="0 0 32 32">
<title>facebook</title>
<path fill="#3b5998" style="fill: var(--color1, #3b5998)" d="M30.235 0h-28.469c-0.975 0-1.765 0.791-1.765 1.765v28.469c0 0.976 0.791 1.765 1.765 1.765h15.325v-12.392h-4.172v-4.828h4.172v-3.567c0-4.132 2.525-6.38 6.212-6.38 1.767 0 3.285 0.129 3.728 0.188v4.32h-2.561c-2 0-2.389 0.961-2.389 2.361v3.081h4.779l-0.62 4.84h-4.159v12.376h8.153c0.977 0 1.767-0.789 1.767-1.765v-28.469c0-0.975-0.789-1.765-1.765-1.765z"></path>
</symbol>


<symbol id="icon-whatsapp" viewBox="0 0 32 32">
<title>whatsapp</title>
<path fill="#25d366" style="fill: var(--color1, #25d366)" d="M23.331 19.176c-0.401-0.2-2.356-1.156-2.72-1.288-0.364-0.135-0.631-0.2-0.897 0.2-0.263 0.393-1.028 1.285-1.259 1.549-0.233 0.26-0.465 0.28-0.861 0.1-0.4-0.2-1.684-0.62-3.204-1.98-1.184-1.060-1.979-2.36-2.213-2.76-0.232-0.4-0.025-0.62 0.173-0.82 0.181-0.18 0.401-0.46 0.601-0.697 0.195-0.241 0.259-0.401 0.396-0.661 0.133-0.28 0.065-0.5-0.033-0.699-0.1-0.2-0.896-2.16-1.229-2.941-0.32-0.779-0.649-0.68-0.896-0.68-0.229-0.020-0.495-0.020-0.761-0.020s-0.697 0.099-1.063 0.479c-0.364 0.4-1.393 1.36-1.393 3.3s1.427 3.82 1.625 4.1c0.199 0.26 2.807 4.26 6.8 5.98 0.952 0.4 1.693 0.64 2.272 0.839 0.952 0.303 1.82 0.26 2.507 0.161 0.765-0.121 2.356-0.961 2.688-1.901 0.34-0.94 0.34-1.72 0.24-1.9-0.099-0.18-0.36-0.28-0.76-0.46zM16.081 29h-0.021c-2.36 0-4.699-0.64-6.74-1.84l-0.48-0.285-5 1.3 1.34-4.86-0.319-0.5c-1.32-2.101-2.021-4.521-2.021-7.013 0-7.26 5.94-13.18 13.256-13.18 3.539 0 6.86 1.38 9.361 3.88 2.5 2.479 3.879 5.8 3.879 9.32-0.005 7.259-5.947 13.18-13.247 13.18zM27.36 4.599c-3.040-2.939-7.040-4.599-11.3-4.599-8.776 0-15.921 7.112-15.925 15.857 0 2.795 0.732 5.52 2.127 7.927l-2.261 8.216 8.447-2.203c2.328 1.257 4.947 1.925 7.613 1.929h0.008c8.78 0 15.928-7.115 15.932-15.861 0-4.235-1.653-8.22-4.66-11.215z"></path>
</symbol>


<symbol id="icon-volume-medium" viewBox="0 0 32 32">
<title>volume-medium</title>
<path d="M22.485 25.985c-0.384 0-0.768-0.146-1.061-0.439-0.586-0.586-0.586-1.535 0-2.121 4.094-4.094 4.094-10.755 0-14.849-0.586-0.586-0.586-1.536 0-2.121s1.536-0.586 2.121 0c2.55 2.55 3.954 5.94 3.954 9.546s-1.404 6.996-3.954 9.546c-0.293 0.293-0.677 0.439-1.061 0.439v0zM17.157 23.157c-0.384 0-0.768-0.146-1.061-0.439-0.586-0.586-0.586-1.535 0-2.121 2.534-2.534 2.534-6.658 0-9.192-0.586-0.586-0.586-1.536 0-2.121s1.535-0.586 2.121 0c3.704 3.704 3.704 9.731 0 13.435-0.293 0.293-0.677 0.439-1.061 0.439z"></path>
<path d="M13 30c-0.26 0-0.516-0.102-0.707-0.293l-7.707-7.707h-3.586c-0.552 0-1-0.448-1-1v-10c0-0.552 0.448-1 1-1h3.586l7.707-7.707c0.286-0.286 0.716-0.372 1.090-0.217s0.617 0.519 0.617 0.924v26c0 0.404-0.244 0.769-0.617 0.924-0.124 0.051-0.254 0.076-0.383 0.076z"></path>
</symbol>

<symbol id="icon-volume-mute" viewBox="0 0 32 32">
<title>volume-mute</title>
<path d="M30 19.348v2.652h-2.652l-3.348-3.348-3.348 3.348h-2.652v-2.652l3.348-3.348-3.348-3.348v-2.652h2.652l3.348 3.348 3.348-3.348h2.652v2.652l-3.348 3.348 3.348 3.348z"></path>
<path d="M13 30c-0.26 0-0.516-0.102-0.707-0.293l-7.707-7.707h-3.586c-0.552 0-1-0.448-1-1v-10c0-0.552 0.448-1 1-1h3.586l7.707-7.707c0.286-0.286 0.716-0.372 1.090-0.217s0.617 0.519 0.617 0.924v26c0 0.404-0.244 0.769-0.617 0.924-0.124 0.051-0.254 0.076-0.383 0.076z"></path>
</symbol>

<symbol id="icon-gmail" viewBox="0 0 32 32">
<title>gmail</title>
<path fill="#d14836" style="fill: var(--color1, #d14836)" d="M32 6v20c0 1.133-0.867 2-2 2h-2v-18.151l-12 8.617-12-8.617v18.151h-2c-1.135 0-2-0.867-2-2v-20c0-0.567 0.216-1.067 0.575-1.424 0.359-0.363 0.86-0.576 1.425-0.576h0.667l13.333 9.667 13.333-9.667h0.667c0.567 0 1.067 0.216 1.425 0.576 0.36 0.357 0.575 0.857 0.575 1.424z"></path>
</symbol>

<symbol id="airplane" viewBox="0 0 24 24">
<title>airplane</title>
<path d="M14.016 14.438c-3.199-0.88-6.424-1.732-9.656-2.578l-1.594-0.469v-5.156l1.453 0.375 0.938 2.344 4.969 1.313v-8.25l1.922 0.516 2.766 9 5.297 1.406c0.797 0.234 1.266 1.078 1.078 1.875-0.234 0.797-1.031 1.219-1.828 1.031zM2.484 18.984h19.031v2.016h-19.031v-2.016z"></path>
</symbol>

<symbol id="bus" viewBox="0 0 24 24">
<title>bus</title>
<path d="M18 11.016v-5.016h-12v5.016h12zM16.5 17.016c0.844 0 1.5-0.656 1.5-1.5s-0.656-1.5-1.5-1.5-1.5 0.656-1.5 1.5 0.656 1.5 1.5 1.5zM7.5 17.016c0.844 0 1.5-0.656 1.5-1.5s-0.656-1.5-1.5-1.5-1.5 0.656-1.5 1.5 0.656 1.5 1.5 1.5zM3.984 15.984v-9.984c0-3.516 3.609-3.984 8.016-3.984s8.016 0.469 8.016 3.984v9.984c0 0.891-0.422 1.688-1.031 2.25v1.781c0 0.563-0.422 0.984-0.984 0.984h-0.984c-0.563 0-1.031-0.422-1.031-0.984v-1.031h-7.969v1.031c0 0.563-0.469 0.984-1.031 0.984h-0.984c-0.563 0-0.984-0.422-0.984-0.984v-1.781c-0.609-0.563-1.031-1.359-1.031-2.25z"></path>
</symbol>

<symbol id="gb" viewBox="0 0 512 512">
  <defs>
    <clipPath id="a">
      <path fill-opacity=".7" d="M250 0h500v500H250z"/>
    </clipPath>
  </defs>
  <g clip-path="url(#a)" transform="translate(-256) scale(1.024)">
    <g stroke-width="1pt">
      <path fill="#012169" style="fill: var(--color1, #012169);" d="M0 0h1000v500H0z"/>
      <path fill="#fff" d="M0 0v55.9L888.2 500H1000v-55.9L111.8.1H0zm1000 0v55.9L111.8 500H0v-55.9L888.2 0H1000z"/>
      <path fill="#fff" d="M416.7 0v500h166.6V0H416.7zM0 166.7v166.6h1000V166.7H0z"/>
      <path fill="#c8102e" style="fill: var(--color1, #c8102e);" d="M0 200v100h1000V200H0zM450 0v500h100V0H450zM0 500l333.3-166.7H408L74.5 500H0zM0 0l333.3 166.7h-74.5L0 37.3V0zm592.1 166.7L925.5 0h74.5L666.7 166.7H592zm408 333.3L666.6 333.3h74.5L1000 462.7V500z"/>
    </g>
  </g>
</symbol>



<symbol id="ar" viewBox="0 0 512 512">
  <path fill="#74acdf"  style="fill: var(--color1, #74acdf);"  d="M0 0h512v512H0z"/>
  <path fill="#fff" d="M0 170.7h512v170.6H0z"/>
  <g id="c" transform="translate(-153.6) scale(1.024)">
    <path id="a" fill="#f6b40e" style="fill: var(--color1, #f6b40e);" stroke="#85340a" stroke-width="1.1" d="M396.8 251.3l28.5 62s.5 1.2 1.3.9c.8-.4.3-1.5.3-1.5l-23.7-64m-.7 24.1c-.4 9.4 5.4 14.6 4.7 23-.8 8.5 3.8 13.2 5 16.5 1 3.3-1.3 5.2-.3 5.7s3-2.1 2.4-6.8c-.7-4.6-4.2-6-3.4-16.3.8-10.3-4.2-12.7-3-22"/>
    <use width="100%" height="100%" transform="rotate(22.5 400 250)" xlink:href="#a"/>
    <use width="100%" height="100%" transform="rotate(45 400 250)" xlink:href="#a"/>
    <use width="100%" height="100%" transform="rotate(67.5 400 250)" xlink:href="#a"/>
    <path id="b" fill="#85340a" style="fill: var(--color1, #85340a);" d="M404.3 274.4c.5 9 5.6 13 4.6 21.3 2.2-6.5-3.1-11.6-2.8-21.2m-7.7-23.8l19.5 42.6-16.3-43.9"/>
    <use width="100%" height="100%" transform="rotate(22.5 400 250)" xlink:href="#b"/>
    <use width="100%" height="100%" transform="rotate(45 400 250)" xlink:href="#b"/>
    <use width="100%" height="100%" transform="rotate(67.5 400 250)" xlink:href="#b"/>
  </g>
  <use width="100%" height="100%" transform="rotate(90 256 256)" xlink:href="#c"/>
  <use width="100%" height="100%" transform="rotate(180 256 256)" xlink:href="#c"/>
  <use width="100%" height="100%" transform="rotate(-90 256 256)" xlink:href="#c"/>
  <circle cx="256" cy="256" r="28.4" fill="#f6b40e" stroke="#85340a" stroke-width="1.5"/>
  <path id="h" fill="#843511" d="M265.7 250c-2 0-3.8.8-4.9 2.5 2.2 2 7 2.2 10.3-.2a7.5 7.5 0 0 0-5.4-2.4zm0 .4c1.9 0 3.6.8 3.9 1.7-2.2 2.4-5.7 2.2-7.9.4a4.6 4.6 0 0 1 4-2.1z"/>
  <use width="100%" height="100%" transform="matrix(-1 0 0 1 512.3 0)" xlink:href="#d"/>
  <use width="100%" height="100%" transform="matrix(-1 0 0 1 512.3 0)" xlink:href="#e"/>
  <use width="100%" height="100%" transform="translate(19.3)" xlink:href="#f"/>
  <use width="100%" height="100%" transform="matrix(-1 0 0 1 512.3 0)" xlink:href="#g"/>
  <path fill="#85340a" style="fill: var(--color1, #85340a);"  d="M251.7 260a2 2 0 1 0 2 3c.7.6 1.7.6 2.3.6h.3a4.2 4.2 0 0 0 2.3-.6 2 2 0 1 0 2-3c.5.1.9.6.9 1.2a1.3 1.3 0 0 1-1.3 1.3 1.3 1.3 0 0 1-1.3-1.3 3.3 3.3 0 0 1-2.8 1.8 3.3 3.3 0 0 1-2.7-1.8 1.3 1.3 0 0 1-1.3 1.3 1.3 1.3 0 0 1-1.3-1.3c0-.6.3-1 .8-1.3zm2 5.8c-2.1 0-3 2-5 3.3 1.2-.5 2-1.3 3.6-2.2 1.5-.9 2.8.2 3.7.2.9 0 2.2-1.1 3.7-.2 1.5.9 2.4 1.7 3.5 2.2-2-1.4-2.8-3.3-5-3.3a6 6 0 0 0-2.2.6 5.8 5.8 0 0 0-2.2-.6z"/>
  <path fill="#85340a" style="fill: var(--color1, #85340a);"  d="M253 268.4a15 15 0 0 0-3.6.7c4-1 4.8.4 6.6.4 1.8 0 2.6-1.3 6.6-.5-4.4-1.2-5.3-.4-6.6-.4-.9 0-1.5-.3-3-.3z"/>
  <path fill="#85340a" style="fill: var(--color1, #85340a);"  d="M249.6 269h-.8c4.6.5 2.3 3.1 7.2 3.1 4.8 0 2.6-2.6 7.2-3-4.8-.5-3.3 2.4-7.2 2.4-3.7 0-2.6-2.5-6.4-2.5zm10.3 7.1a4 4 0 0 0-3.9-4 4 4 0 0 0-4 4 4 4 0 0 1 4-3 4 4 0 0 1 4 3z"/>
  <path id="e" fill="#85340a" style="fill: var(--color1, #85340a);"  d="M238.3 249.9c5-4.4 11.4-5 14.9-1.8a8.6 8.6 0 0 1 1.6 3.7c.5 2.5-.3 5.2-2.3 8 .3 0 .7.1 1 .4 1.6-3.4 2.3-6.8 1.7-10a14.2 14.2 0 0 0-.7-2.5c-4.8-4-11.4-4.4-16.2 2.2z"/>
  <path id="d" fill="#85340a" style="fill: var(--color1, #85340a);"  d="M246.2 248.6c2.8 0 3.5.6 4.8 1.7 1.3 1.1 2 .9 2.2 1.1.2.2 0 .9-.5.7-.4-.3-1.2-.7-2.6-1.8-1.3-1-2.6-1-4-1-3.8 0-6 3.2-6.5 3-.4-.2 2.2-3.7 6.6-3.7z"/>
  <use width="100%" height="100%" transform="translate(-19.6)" xlink:href="#h"/>
  <circle id="f" cx="246.3" cy="252.1" r="2" fill="#85340a" style="fill: var(--color1, #85340a);" />
  <path id="g" fill="#85340a" style="fill: var(--color1, #85340a);"  d="M241 253.4c3.7 2.8 7.4 2.6 9.6 1.3 2.2-1.3 2.2-1.8 1.7-1.8-.4 0-.9.5-2.6 1.3-1.8 1-4.4 1-8.8-.8z"/>
</symbol>



</defs>
</svg>


